<mxfile host="app.diagrams.net" modified="2024-03-08T11:55:57.955Z" agent="Mozilla/5.0 (Windows NT 10.0; Win64; x64; rv:123.0) Gecko/20100101 Firefox/123.0" version="24.0.0" etag="XV9Ia4nQhSfivUC8aB7S" type="github">
  <diagram name="Page-1" id="71ivUI4lZ3QJQVUcCtZd">
    <mxGraphModel>
      <root>
        <mxCell id="0" />
        <mxCell id="1" parent="0" />
      </root>
    </mxGraphModel>
  </diagram>
</mxfile>
